<svg width="16" height="16" viewBox="0 0 16 16" fill="none" xmlns="http://www.w3.org/2000/svg">
<g clip-path="url(#clip0_2_52)">
<g clip-path="url(#clip1_2_52)">
<g clip-path="url(#clip2_2_52)">
<path d="M8.00002 0.844482C12.0137 0.844482 15.2656 4.09644 15.2656 8.11011C15.2656 12.1238 12.0137 15.3757 8.00002 15.3757C3.98634 15.3757 0.73439 12.1238 0.73439 8.11011C0.73439 4.09644 3.98634 0.844482 8.00002 0.844482ZM4.60158 9.39917H8.00002V11.4763C8.00002 11.7898 8.38087 11.948 8.6006 11.7253L11.9492 8.35913C12.0869 8.22144 12.0869 8.00171 11.9492 7.86401L8.6006 4.49487C8.37794 4.27222 8.00002 4.43042 8.00002 4.7439V6.82104H4.60158C4.40822 6.82104 4.25002 6.97925 4.25002 7.17261V9.04761C4.25002 9.24097 4.40822 9.39917 4.60158 9.39917Z" fill="white"/>
</g>
</g>
</g>
<defs>
<clipPath id="clip0_2_52">
<rect width="15" height="15" fill="white" transform="translate(0.500015 0.610107)"/>
</clipPath>
<clipPath id="clip1_2_52">
<rect width="15" height="15" fill="white" transform="translate(0.500015 0.610107)"/>
</clipPath>
<clipPath id="clip2_2_52">
<rect width="15" height="15" fill="white" transform="translate(0.500015 0.610107)"/>
</clipPath>
</defs>
</svg>
