<svg width="16" height="16" viewBox="0 0 16 16" fill="none" xmlns="http://www.w3.org/2000/svg">
<g clip-path="url(#clip0_2_31)">
<g clip-path="url(#clip1_2_31)">
<g clip-path="url(#clip2_2_31)">
<path d="M8.00002 0.904419C12.0137 0.904419 15.2656 4.15637 15.2656 8.17004C15.2656 12.1837 12.0137 15.4357 8.00002 15.4357C3.98634 15.4357 0.73439 12.1837 0.73439 8.17004C0.73439 4.15637 3.98634 0.904419 8.00002 0.904419ZM4.60158 9.45911H8.00002V11.5363C8.00002 11.8497 8.38087 12.0079 8.6006 11.7853L11.9492 8.41907C12.0869 8.28137 12.0869 8.06165 11.9492 7.92395L8.6006 4.55481C8.37794 4.33215 8.00002 4.49036 8.00002 4.80383V6.88098H4.60158C4.40822 6.88098 4.25002 7.03918 4.25002 7.23254V9.10754C4.25002 9.3009 4.40822 9.45911 4.60158 9.45911Z" fill="white"/>
</g>
</g>
</g>
<defs>
<clipPath id="clip0_2_31">
<rect width="15" height="15" fill="white" transform="translate(0.500015 0.670044)"/>
</clipPath>
<clipPath id="clip1_2_31">
<rect width="15" height="15" fill="white" transform="translate(0.500015 0.670044)"/>
</clipPath>
<clipPath id="clip2_2_31">
<rect width="15" height="15" fill="white" transform="translate(0.500015 0.670044)"/>
</clipPath>
</defs>
</svg>
