<svg width="30" height="31" viewBox="0 0 30 31" fill="none" xmlns="http://www.w3.org/2000/svg">
<g clip-path="url(#clip0_2_15)">
<g clip-path="url(#clip1_2_15)">
<path d="M8.74998 3.78125V8.46875C8.74998 9.24541 8.12039 9.875 7.34373 9.875H1.40625C0.62959 9.875 0 9.24541 0 8.46875V3.78125C0 3.00459 0.62959 2.375 1.40625 2.375H7.34373C8.12039 2.375 8.74998 3.00459 8.74998 3.78125ZM19.375 17.8438V13.1562C19.375 12.3796 18.7454 11.75 17.9688 11.75H12.0312C11.2546 11.75 10.625 12.3796 10.625 13.1562V17.8438C10.625 18.6204 11.2546 19.25 12.0312 19.25H17.9687C18.7454 19.25 19.375 18.6204 19.375 17.8438ZM21.25 3.78125V8.46875C21.25 9.24541 21.8796 9.875 22.6563 9.875H28.5938C29.3704 9.875 30 9.24541 30 8.46875V3.78125C30 3.00459 29.3704 2.375 28.5938 2.375H22.6563C21.8796 2.375 21.25 3.00459 21.25 3.78125ZM19.375 8.46875V3.78125C19.375 3.00459 18.7454 2.375 17.9688 2.375H12.0312C11.2546 2.375 10.625 3.00459 10.625 3.78125V8.46875C10.625 9.24541 11.2546 9.875 12.0312 9.875H17.9687C18.7454 9.875 19.375 9.24541 19.375 8.46875ZM7.34373 11.75H1.40625C0.62959 11.75 0 12.3796 0 13.1562V17.8438C0 18.6204 0.62959 19.25 1.40625 19.25H7.34373C8.12039 19.25 8.74998 18.6204 8.74998 17.8438V13.1562C8.74998 12.3796 8.12039 11.75 7.34373 11.75ZM0 22.5312V27.2188C0 27.9954 0.62959 28.625 1.40625 28.625H7.34373C8.12039 28.625 8.74998 27.9954 8.74998 27.2188V22.5312C8.74998 21.7546 8.12039 21.125 7.34373 21.125H1.40625C0.62959 21.125 0 21.7546 0 22.5312ZM22.6563 19.25H28.5938C29.3704 19.25 30 18.6204 30 17.8438V13.1562C30 12.3796 29.3704 11.75 28.5938 11.75H22.6563C21.8796 11.75 21.25 12.3796 21.25 13.1562V17.8438C21.25 18.6204 21.8796 19.25 22.6563 19.25ZM22.6563 28.625H28.5938C29.3704 28.625 30 27.9954 30 27.2188V22.5312C30 21.7546 29.3704 21.125 28.5938 21.125H22.6563C21.8796 21.125 21.25 21.7546 21.25 22.5312V27.2188C21.25 27.9954 21.8796 28.625 22.6563 28.625ZM10.625 22.5312V27.2188C10.625 27.9954 11.2546 28.625 12.0312 28.625H17.9687C18.7454 28.625 19.375 27.9954 19.375 27.2188V22.5312C19.375 21.7546 18.7454 21.125 17.9687 21.125H12.0312C11.2546 21.125 10.625 21.7546 10.625 22.5312Z" fill="#FFC627"/>
</g>
</g>
<defs>
<clipPath id="clip0_2_15">
<rect width="30" height="30" fill="white" transform="translate(0 0.5)"/>
</clipPath>
<clipPath id="clip1_2_15">
<rect width="30" height="30" fill="white" transform="translate(0 0.5)"/>
</clipPath>
</defs>
</svg>
