<svg width="30" height="28" viewBox="0 0 30 28" fill="none" xmlns="http://www.w3.org/2000/svg">
<g clip-path="url(#clip0_2_36)">
<g clip-path="url(#clip1_2_36)">
<g clip-path="url(#clip2_2_36)">
<path d="M28.7465 4.05249H4.58591C3.89572 4.05249 3.33622 4.61199 3.33622 5.30218V5.71874H1.25341C0.563219 5.71874 0.00372314 6.27824 0.00372314 6.96843V21.1316C0.00372314 22.742 1.30923 24.0475 2.91966 24.0475H27.4968C28.8772 24.0475 29.9962 22.9285 29.9962 21.5481V5.30218C29.9962 4.61199 29.4367 4.05249 28.7465 4.05249ZM2.91966 21.5481C2.80918 21.5481 2.70323 21.5042 2.62511 21.4261C2.54699 21.348 2.5031 21.242 2.5031 21.1316V8.21812H3.33622V21.1316C3.33622 21.242 3.29234 21.348 3.21421 21.4261C3.13609 21.5042 3.03014 21.5481 2.91966 21.5481ZM15.2083 20.715H7.29357C6.9485 20.715 6.66872 20.4352 6.66872 20.0901V19.6736C6.66872 19.3285 6.9485 19.0487 7.29357 19.0487H15.2083C15.5533 19.0487 15.8331 19.3285 15.8331 19.6736V20.0901C15.8331 20.4352 15.5533 20.715 15.2083 20.715ZM26.0389 20.715H18.1242C17.7791 20.715 17.4993 20.4352 17.4993 20.0901V19.6736C17.4993 19.3285 17.7791 19.0487 18.1242 19.0487H26.0389C26.3839 19.0487 26.6637 19.3285 26.6637 19.6736V20.0901C26.6637 20.4352 26.3839 20.715 26.0389 20.715ZM15.2083 15.7162H7.29357C6.9485 15.7162 6.66872 15.4365 6.66872 15.0914V14.6748C6.66872 14.3298 6.9485 14.05 7.29357 14.05H15.2083C15.5533 14.05 15.8331 14.3298 15.8331 14.6748V15.0914C15.8331 15.4365 15.5533 15.7162 15.2083 15.7162ZM26.0389 15.7162H18.1242C17.7791 15.7162 17.4993 15.4365 17.4993 15.0914V14.6748C17.4993 14.3298 17.7791 14.05 18.1242 14.05H26.0389C26.3839 14.05 26.6637 14.3298 26.6637 14.6748V15.0914C26.6637 15.4365 26.3839 15.7162 26.0389 15.7162ZM26.0389 10.7175H7.29357C6.9485 10.7175 6.66872 10.4377 6.66872 10.0926V8.00983C6.66872 7.66476 6.9485 7.38499 7.29357 7.38499H26.0389C26.3839 7.38499 26.6637 7.66476 26.6637 8.00983V10.0926C26.6637 10.4377 26.3839 10.7175 26.0389 10.7175Z" fill="#FFC627"/>
</g>
</g>
</g>
<defs>
<clipPath id="clip0_2_36">
<rect width="30" height="26.66" fill="white" transform="translate(0 0.719971)"/>
</clipPath>
<clipPath id="clip1_2_36">
<rect width="30" height="26.66" fill="white" transform="translate(0 0.719971)"/>
</clipPath>
<clipPath id="clip2_2_36">
<rect width="29.9925" height="26.66" fill="white" transform="translate(0.00372314 0.719971)"/>
</clipPath>
</defs>
</svg>
