<svg width="30" height="31" viewBox="0 0 30 31" fill="none" xmlns="http://www.w3.org/2000/svg">
<path d="M24.4863 8.66756C23.2379 8.40053 22.1075 7.74175 21.2598 6.78725C20.4121 5.83275 19.8915 4.63245 19.7738 3.36131V2.81006H15.4675V19.9001C15.4648 20.6567 15.2252 21.3934 14.7822 22.0068C14.3392 22.6201 13.7152 23.0793 12.9978 23.3197C12.2804 23.5601 11.5057 23.5697 10.7826 23.3471C10.0595 23.1246 9.4243 22.681 8.96626 22.0788C8.50111 21.4665 8.24309 20.722 8.22959 19.9532C8.2161 19.1844 8.44784 18.4313 8.89122 17.8031C9.3346 17.1748 9.96655 16.7042 10.6954 16.4593C11.4243 16.2145 12.2123 16.2082 12.945 16.4413V12.0663C11.3111 11.8404 9.64741 12.1309 8.1867 12.8971C6.72599 13.6634 5.54131 14.867 4.79836 16.3397C4.05541 17.8123 3.79135 19.4804 4.04312 21.1106C4.29488 22.7407 5.04988 24.2514 6.20251 25.4313C7.30171 26.556 8.71112 27.3276 10.2508 27.6477C11.7905 27.9678 13.3907 27.8218 14.8471 27.2284C16.3034 26.6349 17.5499 25.621 18.4274 24.3159C19.3049 23.0109 19.7737 21.4739 19.7738 19.9013V11.1688C21.5141 12.413 23.6007 13.0801 25.74 13.0763V8.79756C25.3187 8.79808 24.8985 8.75451 24.4863 8.66756Z" fill="white"/>
</svg>
