<svg width="27" height="31" viewBox="0 0 27 31" fill="none" xmlns="http://www.w3.org/2000/svg">
<g clip-path="url(#clip0_2_67)">
<path d="M24.1275 2.18506H3.5025C2.75658 2.18506 2.04121 2.48137 1.51376 3.00882C0.986319 3.53627 0.690002 4.25164 0.690002 4.99756L0.690002 25.6226C0.690002 26.3685 0.986319 27.0839 1.51376 27.6113C2.04121 28.1387 2.75658 28.4351 3.5025 28.4351H11.5445V19.5106H7.85309V15.3101H11.5445V12.1085C11.5445 8.46689 13.7125 6.45537 17.033 6.45537C18.6232 6.45537 20.2861 6.73896 20.2861 6.73896V10.3132H18.4539C16.6486 10.3132 16.0855 11.4335 16.0855 12.5825V15.3101H20.1156L19.4711 19.5106H16.0855V28.4351H24.1275C24.8734 28.4351 25.5888 28.1387 26.1162 27.6113C26.6437 27.0839 26.94 26.3685 26.94 25.6226V4.99756C26.94 4.25164 26.6437 3.53627 26.1162 3.00882C25.5888 2.48137 24.8734 2.18506 24.1275 2.18506Z" fill="white"/>
</g>
<defs>
<clipPath id="clip0_2_67">
<rect width="26.25" height="30" fill="white" transform="translate(0.690002 0.310059)"/>
</clipPath>
</defs>
</svg>
