<svg width="31" height="31" viewBox="0 0 31 31" fill="none" xmlns="http://www.w3.org/2000/svg">
<g clip-path="url(#clip0_2_69)">
<path d="M27.5462 9.19975C27.5653 9.46623 27.5653 9.73277 27.5653 9.99926C27.5653 18.1274 21.3788 27.4929 10.0716 27.4929C6.58811 27.4929 3.35209 26.484 0.630005 24.7328C1.12495 24.7898 1.60079 24.8089 2.11477 24.8089C4.98909 24.8089 7.63506 23.8381 9.74801 22.182C7.04497 22.1249 4.77973 20.3546 3.99926 17.918C4.38 17.9751 4.76069 18.0132 5.16047 18.0132C5.71249 18.0132 6.26456 17.937 6.77848 17.8038C3.96124 17.2327 1.84823 14.7581 1.84823 11.7696V11.6934C2.66672 12.1503 3.61858 12.4358 4.62739 12.4738C2.97129 11.3698 1.88631 9.48527 1.88631 7.35328C1.88631 6.21117 2.19083 5.16422 2.72385 4.25051C5.75051 7.98146 10.3 10.418 15.4015 10.6845C15.3063 10.2277 15.2492 9.75182 15.2492 9.27592C15.2492 5.88756 17.9903 3.12744 21.3977 3.12744C23.168 3.12744 24.7669 3.86982 25.8901 5.06906C27.2796 4.80258 28.6121 4.28859 29.7923 3.5843C29.3354 5.01199 28.3647 6.21123 27.0893 6.9726C28.3266 6.83941 29.5259 6.4967 30.6299 6.02086C29.7925 7.23908 28.7455 8.32406 27.5462 9.19975Z" fill="white"/>
</g>
<defs>
<clipPath id="clip0_2_69">
<rect width="30" height="30" fill="white" transform="translate(0.630005 0.310059)"/>
</clipPath>
</defs>
</svg>
