<svg width="34" height="31" viewBox="0 0 34 31" fill="none" xmlns="http://www.w3.org/2000/svg">
<path d="M32.4564 7.58055C32.0883 6.1948 31.004 5.10344 29.6272 4.73307C27.1317 4.06006 17.125 4.06006 17.125 4.06006C17.125 4.06006 7.11838 4.06006 4.62281 4.73307C3.24604 5.1035 2.1617 6.1948 1.79367 7.58055C1.125 10.0923 1.125 15.3328 1.125 15.3328C1.125 15.3328 1.125 20.5733 1.79367 23.085C2.1617 24.4708 3.24604 25.5167 4.62281 25.8871C7.11838 26.5601 17.125 26.5601 17.125 26.5601C17.125 26.5601 27.1317 26.5601 29.6272 25.8871C31.004 25.5167 32.0883 24.4708 32.4564 23.085C33.125 20.5733 33.125 15.3328 33.125 15.3328C33.125 15.3328 33.125 10.0923 32.4564 7.58055ZM13.8523 20.0908V10.5748L22.2159 15.3329L13.8523 20.0908Z" fill="white"/>
</svg>
