<svg width="27" height="31" viewBox="0 0 27 31" fill="none" xmlns="http://www.w3.org/2000/svg">
<g clip-path="url(#clip0_2_71)">
<path d="M13.4409 8.57178C9.71436 8.57178 6.7085 11.5776 6.7085 15.3042C6.7085 19.0308 9.71436 22.0366 13.4409 22.0366C17.1675 22.0366 20.1733 19.0308 20.1733 15.3042C20.1733 11.5776 17.1675 8.57178 13.4409 8.57178ZM13.4409 19.6812C11.0327 19.6812 9.06396 17.7183 9.06396 15.3042C9.06396 12.8901 11.0269 10.9272 13.4409 10.9272C15.855 10.9272 17.8179 12.8901 17.8179 15.3042C17.8179 17.7183 15.8491 19.6812 13.4409 19.6812ZM22.019 8.29639C22.019 9.16943 21.3159 9.8667 20.4487 9.8667C19.5757 9.8667 18.8784 9.16357 18.8784 8.29639C18.8784 7.4292 19.5815 6.72607 20.4487 6.72607C21.3159 6.72607 22.019 7.4292 22.019 8.29639ZM26.478 9.89014C26.3784 7.78662 25.8979 5.92334 24.3569 4.38818C22.8218 2.85303 20.9585 2.37256 18.855 2.26709C16.687 2.14404 10.189 2.14404 8.021 2.26709C5.92334 2.3667 4.06006 2.84717 2.51904 4.38232C0.978027 5.91748 0.503418 7.78076 0.397949 9.88428C0.274902 12.0522 0.274902 18.5503 0.397949 20.7183C0.497559 22.8218 0.978027 24.6851 2.51904 26.2202C4.06006 27.7554 5.91748 28.2358 8.021 28.3413C10.189 28.4644 16.687 28.4644 18.855 28.3413C20.9585 28.2417 22.8218 27.7612 24.3569 26.2202C25.8921 24.6851 26.3726 22.8218 26.478 20.7183C26.6011 18.5503 26.6011 12.0581 26.478 9.89014ZM23.6772 23.0444C23.2202 24.1929 22.3355 25.0776 21.1812 25.5405C19.4526 26.2261 15.3511 26.0679 13.4409 26.0679C11.5308 26.0679 7.42334 26.2202 5.70068 25.5405C4.55225 25.0835 3.66748 24.1987 3.20459 23.0444C2.51904 21.3159 2.67725 17.2144 2.67725 15.3042C2.67725 13.394 2.5249 9.28662 3.20459 7.56396C3.66162 6.41553 4.54639 5.53076 5.70068 5.06787C7.4292 4.38232 11.5308 4.54053 13.4409 4.54053C15.3511 4.54053 19.4585 4.38818 21.1812 5.06787C22.3296 5.5249 23.2144 6.40967 23.6772 7.56396C24.3628 9.29248 24.2046 13.394 24.2046 15.3042C24.2046 17.2144 24.3628 21.3218 23.6772 23.0444Z" fill="white"/>
</g>
<defs>
<clipPath id="clip0_2_71">
<rect width="26.25" height="30" fill="white" transform="translate(0.310059 0.310059)"/>
</clipPath>
</defs>
</svg>
