<svg width="152" height="46" viewBox="0 0 152 46" fill="none" xmlns="http://www.w3.org/2000/svg">
<g clip-path="url(#clip0_2_80)">
<g clip-path="url(#clip1_2_80)">
<g clip-path="url(#clip2_2_80)">
<path d="M99.3248 11.983C100.165 11.983 100.917 11.4524 101.536 10.6122C102.243 9.68367 102.42 8.0034 102.022 7.34013H99.4574C99.5901 7.60544 99.8554 8.44558 99.8554 8.88775C99.8554 9.94898 99.0595 10.9218 98.7942 11.0986C98.6173 11.2313 98.6173 11.4082 98.6173 11.4966C98.6173 11.8061 98.8384 11.983 99.3248 11.983Z" fill="white"/>
<path d="M141.199 28.8741C140.138 28.8741 139.209 29.7143 139.121 30.7755C139.032 31.8367 139.784 32.6769 140.845 32.6769C141.906 32.6769 142.835 31.8367 142.923 30.7755C143.012 29.7143 142.26 28.8741 141.199 28.8741Z" fill="white"/>
<path d="M144.471 14.9456C141.685 14.9456 139.872 17.7755 139.872 17.7755L140.801 15.3435H136.202L134.08 21.3571C132.709 22.8605 131.029 23.7449 129.083 24.3197L135.274 8.26871H133.24H128.464C120.372 8.26871 114.359 13.2653 114.359 18.3503C114.359 19.9864 115.243 21.1803 116.216 21.8435C116.923 21.8435 118.117 21.8435 119.179 21.8435C118.869 21.4014 118.471 20.2517 118.471 19.1905C118.471 14.3707 122.185 10.1258 128.243 10.1258H129.481C129.481 10.1258 123.821 24.9388 123.777 25.0272C113.209 25.7789 110.025 28.6088 110.025 31.7483C110.025 35.1088 114.226 36.3027 116.26 36.3027C123.07 36.3027 126.607 30.6429 128.42 26.3537C130.1 26 131.648 25.4252 132.974 24.6293L130.1 32.6769H134.699L138.855 21.0034C138.855 21.0034 140.094 18.7483 141.995 18.7483C143.321 18.7483 143.808 19.1905 143.808 19.1905L146.682 15.7415C146.638 15.7415 146.063 14.9456 144.471 14.9456ZM116.57 34.2245C115.332 34.1803 114.182 33.3401 114.182 31.7041C114.182 28.7415 117.852 27.3707 122.981 26.9286C121.345 30.6871 119.577 34.3129 116.57 34.2245Z" fill="white"/>
<path d="M86.1479 14.9456C83.3622 14.9456 81.5493 17.7755 81.5493 17.7755L82.4779 15.3435H77.8792L75.403 22.3299C75.2704 22.551 75.182 22.7279 75.0935 22.949C72.4847 27.7687 69.8316 30.4218 69.2126 30.4218C68.9473 30.4218 68.903 30.1122 69.1241 29.5816C69.3452 29.0068 70.5391 25.5578 72.8826 19.3673H68.5051C67.7534 21.3129 66.1173 25.9116 65.4541 27.6803C64.2602 29.1394 62.5357 30.3775 61.784 30.3775C60.9881 30.3775 60.9881 29.5816 60.9881 29.3163C60.9881 26.7959 63.9064 17.5102 69.4779 17.5102C70.7602 17.5102 71.733 17.7313 72.3962 17.9524L73.2364 15.8299C72.2194 15.2551 70.9813 14.9456 69.2568 14.9456C62.8894 14.9456 58.9098 20.2075 57.3622 24.6735C56.92 25.602 56.2568 26.8401 55.5935 27.9456C53.5153 31.3503 49.801 33.2517 47.3248 33.2075C44.4064 33.1633 42.9915 31.5272 42.9915 27.1939C42.9915 22.551 48.1649 10.3469 54.3112 10.3469C56.2126 10.3469 56.6547 12.0272 56.6547 12.7347C56.6547 13.8843 56.2126 14.5476 55.3282 15.432H59.6173C60.4132 14.9898 61.2092 13.8401 61.2092 12.3809C61.2092 10.6565 59.5289 8.18027 54.6649 8.18027C43.699 8.18027 37.5085 20.3843 37.5085 27.6803C37.5085 34.7993 42.7262 35.8163 46.1309 35.8163C49.7568 35.8163 53.7364 33.5612 55.8146 30.7313C56.1241 30.2891 56.3894 29.8469 56.699 29.4048C57.0527 32.6326 59.2194 32.7211 60.1922 32.7211C61.6513 32.7211 63.5527 31.7483 64.9234 30.5986C65.1003 32.102 66.25 32.7211 67.886 32.7211C69.5221 32.7211 71.2466 31.4388 72.8384 29.6258L71.733 32.6769H76.3316L80.4881 21.0034C80.4881 21.0034 81.7262 18.7483 83.6275 18.7483C84.9541 18.7483 85.4405 19.1905 85.4405 19.1905L88.3146 15.7415C88.3146 15.7415 87.6956 14.9456 86.1479 14.9456Z" fill="white"/>
<path d="M150.883 12.5136C150.838 12.2483 150.706 12.1156 150.529 12.0714V12.0272C150.75 11.9388 150.927 11.8061 150.927 11.585C150.927 11.4082 150.838 11.2755 150.75 11.1871C150.617 11.0986 150.44 11.0544 150.131 11.0544C149.821 11.0544 149.6 11.0986 149.423 11.0986V12.9116H149.866V12.1599H150.087C150.308 12.1599 150.44 12.2483 150.485 12.4694C150.529 12.6905 150.573 12.8673 150.617 12.9116H151.059C150.971 12.9116 150.927 12.7789 150.883 12.5136ZM150.042 11.9388H149.821V11.4082C149.866 11.4082 149.954 11.3639 150.042 11.3639C150.308 11.3639 150.44 11.4966 150.44 11.6292C150.485 11.8503 150.264 11.9388 150.042 11.9388Z" fill="white"/>
<path d="M150.131 10.2143C149.07 10.2143 148.274 11.0102 148.274 12.0272C148.274 13.0442 149.114 13.8843 150.131 13.8843C151.192 13.8843 151.988 13.0884 151.988 12.0272C151.988 11.0102 151.192 10.2143 150.131 10.2143ZM150.131 13.4864C149.291 13.4864 148.716 12.8231 148.716 12.0272C148.716 11.2313 149.335 10.568 150.131 10.568C150.927 10.568 151.546 11.2313 151.546 12.0272C151.502 12.8231 150.927 13.4864 150.131 13.4864Z" fill="white"/>
<path d="M101.005 16.0952C100.563 16.449 100.165 16.9354 99.6343 17.6429C99.1479 18.3061 98.4847 19.3231 97.8214 20.2517C95.2126 24.0102 92.3826 27.8129 91.3656 28.6973C89.9507 29.8912 88.9779 30.3775 88.5799 30.3775C88.3146 30.3775 88.2704 30.068 88.4915 29.5374C88.7126 28.9626 93.6649 15.9184 96.0527 9.72789H91.6751C90.9677 11.5408 86.5017 23.3469 85.0867 26.9728C84.7772 27.8129 84.3792 29.0068 84.2908 29.9354C84.2024 31.8367 85.3962 32.6769 87.2976 32.6769C88.7568 32.6769 90.5697 31.7041 91.9847 30.5102C92.1173 30.3776 92.25 30.2449 92.4268 30.1122C92.7806 29.7585 93.0901 29.4048 93.3996 29.051C93.6649 31.1735 95.8316 32.6327 98.4405 32.6327C101.845 32.6327 105.029 30.5544 105.029 26.7517C105.029 23.0374 102.818 21.1803 102.818 18.881C102.818 18.2619 103.349 17.5544 104.012 17.5102C105.073 17.4218 105.913 18.3503 105.913 18.3503L107.991 15.9184C107.991 15.9184 106.223 14.3707 103.083 15.1224C102.199 15.3435 101.624 15.6088 101.005 16.0952ZM97.6003 30.6429C96.4064 30.6429 95.1241 29.7585 95.1241 28.0782C95.1241 27.5476 95.4336 26.8844 95.6547 26.4864C95.9643 26.0884 96.2738 25.7347 96.5391 25.381C97.5119 24.0544 98.4847 22.5068 99.3248 21.3571C99.7228 23.3912 100.784 24.2755 100.784 26.9286C100.784 28.432 99.6343 30.6429 97.6003 30.6429Z" fill="white"/>
<path d="M14.9132 16.449C14.9574 16.4932 15.0016 16.4932 15.0458 16.4932H15.0901C15.886 16.0952 16.6819 15.9184 17.4778 16.051C17.6547 16.0952 17.7873 15.9184 17.8315 15.7857C17.8758 15.6089 17.8315 15.432 17.6547 15.3435C16.903 14.9898 15.6207 15.2551 14.869 16.2721C14.8247 16.3163 14.869 16.4048 14.9132 16.449Z" fill="#231F20"/>
<path d="M25.6139 19.7211C25.5697 19.7211 25.5254 19.7211 25.4812 19.7211L25.437 19.6769C24.9948 18.881 24.4642 18.3503 23.7125 17.9524C23.5356 17.8639 23.4914 17.6871 23.5799 17.5102C23.6241 17.3776 23.7567 17.2007 23.9778 17.2449C24.818 17.3776 25.7023 18.3061 25.7465 19.5442C25.7465 19.6327 25.6581 19.7211 25.6139 19.7211Z" fill="#231F20"/>
<path d="M17.1241 23.1701C17.6989 23.9218 17.9642 24.0544 18.4064 24.1871C18.5833 24.2313 18.7601 24.2755 18.937 24.2755C19.2023 24.2755 19.556 24.2313 20.0424 24.0544C20.3077 23.966 20.4846 23.8333 20.4846 23.6565C20.4846 23.5238 20.352 23.4354 20.1309 23.4354C19.9098 23.4354 19.7329 23.4354 19.6445 23.3912C19.4234 23.3912 19.4234 23.3912 18.9812 23.3469H18.937C18.8486 23.3469 18.7601 23.3027 18.6717 23.3027C18.5833 23.2585 18.4948 23.2143 18.4064 23.1701H18.3622C18.0084 22.949 18.0084 22.949 17.7873 22.8605C17.6989 22.8163 17.5663 22.7279 17.3894 22.5952C17.2125 22.5068 17.0799 22.5068 16.9914 22.5952C16.8588 22.7279 16.9472 22.9048 17.1241 23.1701Z" fill="#231F20"/>
<path d="M16.4166 18.085C15.7534 17.9524 15.0901 18.085 14.6479 18.483C14.3826 18.7041 14.3826 19.0136 14.471 19.1905C14.5153 19.3231 14.7363 19.3674 14.869 19.3674C15.0017 19.3674 15.5765 19.3231 16.1071 19.5C16.6377 19.6769 16.8588 19.9422 16.9472 19.9864C17.0357 20.0306 17.2125 20.1191 17.301 20.1633C17.4336 20.1633 17.5221 20.1191 17.6547 20.0306C17.8758 19.8537 18.0085 19.5442 17.8758 19.2347C17.6547 18.6157 17.1241 18.2177 16.4166 18.085Z" fill="#231F20"/>
<path d="M23.403 20.2075C24.0663 20.4728 24.5084 20.9592 24.6411 21.534C24.7295 21.8878 24.5526 22.1088 24.42 22.2415C24.2873 22.3299 24.1105 22.2415 23.9778 22.1531C23.8894 22.0646 23.403 21.7109 22.8724 21.534C22.3418 21.3571 21.988 21.4456 21.8996 21.4456C21.8112 21.4456 21.5901 21.4456 21.5016 21.3571C21.4132 21.2687 21.3248 21.1803 21.2805 21.0476C21.1921 20.7823 21.2805 20.4286 21.5458 20.2517C22.0765 19.9864 22.7839 19.9422 23.403 20.2075Z" fill="#231F20"/>
<path d="M23.403 26.0884C23.2261 25.8231 23.0935 25.381 22.8724 25.5136C22.7397 25.5578 22.784 25.7347 22.7397 25.8674C22.6955 26 22.6513 26.1327 22.4302 26.2653C22.2533 26.3537 22.0765 26.4864 21.8996 26.5306C21.4574 26.7517 21.0152 26.8844 20.4846 27.017C19.5561 27.2381 18.6275 27.1939 17.6105 26.8844C16.5493 26.5748 15.7976 26.0884 15.1343 25.381C14.7806 25.0272 14.471 24.6293 14.2499 24.1871C14.1615 24.0102 14.0731 23.8776 13.9404 23.6565C13.8078 23.3912 13.852 23.2585 13.8962 23.1701C13.9846 23.0374 14.0731 22.9048 13.9846 22.7721C13.852 22.551 13.4982 22.8163 13.1887 22.949C12.7465 23.1701 12.5697 23.1701 12.6139 23.4354C12.6581 23.7007 13.0118 23.4796 13.1003 23.7449C13.3214 24.5408 14.0731 26.7075 15.886 27.9014C16.2397 28.1667 16.6819 28.3435 17.1241 28.4762C17.5663 28.6089 18.0527 28.6531 18.4948 28.6531C20.6173 28.6531 22.4744 27.2823 23.0935 26.7517C23.3146 26.5748 23.4472 26.9286 23.6683 26.7517C23.801 26.6191 23.6683 26.4864 23.403 26.0884Z" fill="#231F20"/>
<path d="M26.3656 0.795915L26.6309 16.3605L28.1343 16.8027L27.9574 5.88095C27.9574 4.90816 27.7363 3.97959 27.3384 3.09523L26.2772 0.530609C26.3214 0.619045 26.3656 0.70748 26.3656 0.795915Z" fill="#DA1A32"/>
<path d="M0.188744 9.81633C0.144527 9.7279 0.100309 9.68368 0.0560913 9.59525L0.719357 11.4524C0.984663 12.2483 1.3384 12.9558 1.8248 13.6191L8.94385 23.0816L9.51868 22.2415L0.188744 9.81633Z" fill="#DA1A32"/>
<path d="M37.9506 23.7007C38.216 22.551 38.6139 21.3571 39.1003 20.1633L26.6309 16.3605L26.3656 0.795918C26.3656 -7.25587e-08 25.3044 -0.309524 24.8622 0.353741L15.9302 13.0884C14.0289 12.5136 5.36221 9.86054 1.0731 8.53401C0.321396 8.31292 -0.297651 9.19728 0.188743 9.81633L9.56289 22.2415L0.63092 34.9762C0.188743 35.6395 0.807791 36.4796 1.55949 36.2143L16.2398 31.1293L24.0221 41.432L25.6139 43.5544C26.1003 44.1735 27.1173 43.8639 27.1173 43.0238L26.852 27.4592L37.9506 23.7007ZM18.4064 23.2143C18.4949 23.2585 18.5833 23.3027 18.6717 23.3469C18.7602 23.3912 18.8486 23.3912 18.937 23.3912H18.9813C19.3792 23.4354 19.3792 23.4354 19.6445 23.4354C19.733 23.4354 19.8656 23.4354 20.1309 23.4796C20.3078 23.4796 20.4847 23.568 20.4847 23.7007C20.4847 23.8333 20.352 24.0102 20.0425 24.0986C19.5561 24.2313 19.2466 24.3197 18.937 24.3197C18.7602 24.3197 18.5833 24.2755 18.4064 24.2313C17.9643 24.0986 17.6989 23.966 17.1241 23.2143C16.9472 22.9932 16.903 22.7721 16.9915 22.6395C17.0799 22.551 17.2126 22.551 17.3894 22.6395C17.6105 22.7721 17.6989 22.8163 17.7874 22.9048C17.9643 22.9932 17.9643 22.9932 18.4064 23.2143ZM14.869 16.2279C15.6207 15.2109 16.903 14.9456 17.6547 15.2993C17.8316 15.3878 17.8758 15.6088 17.8316 15.7415C17.7874 15.8741 17.6547 16.051 17.4779 16.0068C16.6377 15.9184 15.8418 16.051 15.0901 16.449H15.0459C15.0017 16.449 14.9574 16.449 14.9132 16.4048C14.869 16.4048 14.8248 16.3163 14.869 16.2279ZM14.6479 18.483C15.0901 18.085 15.7534 17.9082 16.4166 18.085C17.1241 18.2177 17.6547 18.6599 17.8758 19.1905C18.0085 19.5 17.8758 19.8095 17.6547 19.9864C17.5663 20.0748 17.4336 20.119 17.301 20.119C17.1683 20.119 16.9915 20.0306 16.9472 19.9422C16.903 19.8537 16.6377 19.6327 16.1071 19.4558C15.5765 19.2789 15.0017 19.3231 14.869 19.3231C14.6921 19.3231 14.5153 19.2789 14.4711 19.1463C14.3826 19.0136 14.4268 18.7041 14.6479 18.483ZM23.6241 26.7959C23.4472 26.9728 23.3146 26.619 23.0493 26.7959C22.4302 27.3265 20.5731 28.6973 18.4506 28.6973C18.0085 28.6973 17.5663 28.6531 17.0799 28.5204C16.6377 28.3878 16.1955 28.1667 15.8418 27.9456C14.0731 26.7517 13.3214 24.585 13.0561 23.7891C12.9677 23.4796 12.6581 23.7449 12.5697 23.4796C12.5255 23.2143 12.7023 23.1701 13.1445 22.9932C13.454 22.8605 13.8078 22.5952 13.9404 22.8163C14.0289 22.949 13.8962 23.0374 13.852 23.2143C13.8078 23.3469 13.7636 23.4796 13.8962 23.7007C13.9847 23.8775 14.0731 24.0544 14.2057 24.2313C14.4711 24.6292 14.7364 25.0272 15.0901 25.4252C15.7534 26.1327 16.5051 26.619 17.5663 26.9286C18.6275 27.2381 19.5119 27.2823 20.4404 27.0612C20.9268 26.9286 21.4132 26.7959 21.8554 26.5748C22.0323 26.4864 22.2091 26.398 22.386 26.3095C22.6513 26.1769 22.6955 26.0442 22.6955 25.9116C22.7398 25.7347 22.6955 25.602 22.8282 25.5578C23.0493 25.4694 23.2262 25.8673 23.3588 26.1327C23.6683 26.4864 23.801 26.619 23.6241 26.7959ZM24.42 22.2415C24.2874 22.3299 24.1105 22.2415 23.9779 22.1531C23.8894 22.0646 23.403 21.7109 22.8724 21.534C22.3418 21.3571 21.9881 21.4456 21.8996 21.4456C21.8112 21.4456 21.5901 21.4456 21.5017 21.3571C21.4132 21.2687 21.3248 21.1803 21.2806 21.0476C21.1921 20.7823 21.2806 20.4286 21.5459 20.2517C22.0323 19.9422 22.6955 19.898 23.3588 20.1633C24.0221 20.4286 24.4643 20.915 24.5969 21.4898C24.7296 21.8878 24.5969 22.1531 24.42 22.2415ZM25.6139 19.7211C25.5697 19.7211 25.5255 19.7211 25.4813 19.7211L25.437 19.6769C24.9949 18.881 24.4643 18.3503 23.7126 17.9524C23.5357 17.8639 23.4915 17.6871 23.5799 17.5102C23.6241 17.3775 23.7568 17.2007 23.9779 17.2449C24.818 17.3775 25.7023 18.3061 25.7466 19.5442C25.7466 19.6327 25.6581 19.7211 25.6139 19.7211Z" fill="#FFCE34"/>
<path d="M37.5969 25.4694C37.6853 24.8946 37.7738 24.3197 37.9506 23.7007L26.852 27.5034L27.1173 43.068C27.1173 43.8639 26.1003 44.2177 25.6139 43.5986L16.284 31.1735L1.55948 36.2143C1.42683 36.2585 1.24996 36.2585 1.11731 36.2585L1.02887 36.2143L2.93023 36.9218C3.37241 37.0986 3.81458 37.0986 4.25676 36.9218L16.3282 32.7653L25.3044 44.7041C26.4098 46.1633 28.6649 45.3673 28.6649 43.5544L28.3996 28.6088L37.5969 25.4694Z" fill="#DA1A32"/>
</g>
</g>
</g>
<defs>
<clipPath id="clip0_2_80">
<rect width="152" height="45.5" fill="white"/>
</clipPath>
<clipPath id="clip1_2_80">
<rect width="152" height="45.5" fill="white"/>
</clipPath>
<clipPath id="clip2_2_80">
<rect width="151.976" height="45.5" fill="white" transform="translate(0.0119019)"/>
</clipPath>
</defs>
</svg>
